<svg t="1737465985655" class="icon" viewBox="0 0 1024 1024" version="1.1"
  xmlns="http://www.w3.org/2000/svg" p-id="5432" width="200" height="200">
  <path
    fill="#fff"
    d="M341.333333 981.333333c-25.6 0-42.666667-17.066667-42.666666-42.666666s17.066667-42.666667 42.666666-42.666667h128v-85.333333H128c-46.933333 0-85.333333-38.4-85.333333-85.333334V128c0-46.933333 38.4-85.333333 85.333333-85.333333h768c46.933333 0 85.333333 38.4 85.333333 85.333333v597.333333c0 46.933333-38.4 85.333333-85.333333 85.333334h-341.333333v85.333333h128c25.6 0 42.666667 17.066667 42.666666 42.666667s-17.066667 42.666667-42.666666 42.666666H341.333333z m-213.333333-277.333333c0 12.8 8.533333 21.333333 21.333333 21.333333h725.333334c12.8 0 21.333333-8.533333 21.333333-21.333333V597.333333H128v106.666667z m0-554.666667V512h768V149.333333c0-12.8-8.533333-21.333333-21.333333-21.333333h-725.333334c-12.8 0-21.333333 8.533333-21.333333 21.333333z m341.333333 512c0-25.6 17.066667-42.666667 42.666667-42.666666s42.666667 17.066667 42.666667 42.666666-17.066667 42.666667-42.666667 42.666667-42.666667-17.066667-42.666667-42.666667z"
    p-id="5433"></path>
</svg>