<svg xml:space="preserve" viewBox="0 0 100 100" y="0px" x="0px" xmlns:xlink="http://www.w3.org/1999/xlink"
     xmlns="http://www.w3.org/2000/svg" id="Layer_1" version="1.1"
     style="margin: initial; display: block; shape-rendering: auto; background: rgb(255, 255, 255,0);"
     preserveAspectRatio="xMidYMid" width="200" height="200"><g class="ldl-scale" style="transform-origin: 50% 50%; transform: rotate(0deg) scale(1, 1);"><g class="ldl-ani"><g class="ldl-layer"><g class="ldl-ani"><g><g class="ldl-layer"><g class="ldl-ani" style="transform-box: view-box; opacity: 1; transform-origin: 50px 50px; transform: matrix3d(0.91, 0, 0, 0, 0, 0.91, 0, 0, 0, 0, 0.91, 0, 0, 0, 0, 1); animation: 100s linear -55s infinite normal forwards running animate;"><path d="M45.7,25.97c6.98,9.61,5.94,23.49,5.94,23.49s-13.53-3.31-20.51-12.91C26.06,29.57,24,23.1,24.48,18.52 c-0.05,0.04,6.01,1.82,6.01,1.82s0.18-6.31,0.13-6.28C35.11,15.02,40.63,18.99,45.7,25.97z" stroke-miterlimit="10" stroke-linejoin="round" stroke-linecap="round" stroke-width="3.5" stroke="#333435" fill="#E15D64" style="stroke-width: 3.5; fill: rgb(225, 93, 100); stroke: rgb(51, 52, 53);"></path></g></g><g
        class="ldl-layer"><g class="ldl-ani" style="transform-box: view-box; opacity: 1; transform-origin: 50px 50px; transform: matrix3d(0.91, 0, 0, 0, 0, 0.91, 0, 0, 0, 0, 0.91, 0, 0, 0, 0, 1); animation: 100s linear -60s infinite normal forwards running animate;"><path d="M27.47,47.86c11.29-3.67,24.18,1.61,24.18,1.61s-7.32,11.84-18.62,15.51c-8.21,2.67-15,2.63-19.21,0.77 c0.02,0.06,3.59-5.15,3.59-5.15s-5.95-2.12-5.93-2.06C13.78,54.55,19.25,50.53,27.47,47.86z" stroke-miterlimit="10" stroke-linejoin="round" stroke-linecap="round" stroke-width="3.5" stroke="#333435" fill="#E15D64" style="stroke-width: 3.5; fill: rgb(225, 93, 100); stroke: rgb(51, 52, 53);"></path></g></g><g
        class="ldl-layer"><g class="ldl-ani" style="transform-box: view-box; opacity: 1; transform-origin: 50px 50px; transform: matrix3d(0.91, 0, 0, 0, 0, 0.91, 0, 0, 0, 0, 0.91, 0, 0, 0, 0, 1); animation: 100s linear -65s infinite normal forwards running animate;"><path d="M42.65,71.97c0-11.87,9-22.5,9-22.5s9,10.63,9,22.5c0,8.64-2.13,15.08-5.21,18.5c0.06,0-3.79-5-3.79-5s-3.86,5-3.79,5 C44.78,87.05,42.65,80.6,42.65,71.97z" stroke-miterlimit="10" stroke-linejoin="round" stroke-linecap="round" stroke-width="3.5" stroke="#333435" fill="#E15D64" style="stroke-width: 3.5; fill: rgb(225, 93, 100); stroke: rgb(51, 52, 53);"></path></g></g><g
        class="ldl-layer"><g class="ldl-ani" style="transform-box: view-box; opacity: 1; transform-origin: 50px 50px; transform: matrix3d(0.91, 0, 0, 0, 0, 0.91, 0, 0, 0, 0, 0.91, 0, 0, 0, 0, 1); animation: 100s linear -70s infinite normal forwards running animate;"><path d="M70.26,64.98c-11.29-3.67-18.62-15.51-18.62-15.51s12.89-5.28,24.18-1.61c8.21,2.67,13.69,6.69,15.99,10.67 c0.02-0.06-5.93,2.06-5.93,2.06s3.56,5.21,3.58,5.15C85.27,67.61,78.48,67.65,70.26,64.98z" stroke-miterlimit="10" stroke-linejoin="round" stroke-linecap="round" stroke-width="3.5" stroke="#333435" fill="#E15D64" style="stroke-width: 3.5; fill: rgb(225, 93, 100); stroke: rgb(51, 52, 53);"></path></g></g><g
        class="ldl-layer"><g class="ldl-ani" style="transform-box: view-box; opacity: 1; transform-origin: 50px 50px; transform: matrix3d(0.91, 0, 0, 0, 0, 0.91, 0, 0, 0, 0, 0.91, 0, 0, 0, 0, 1); animation: 100s linear -75s infinite normal forwards running animate;"><path d="M72.15,36.55c-6.98,9.61-20.51,12.91-20.51,12.91s-1.04-13.89,5.94-23.49c5.08-6.99,10.59-10.95,15.09-11.91 c-0.05-0.04,0.13,6.28,0.13,6.28s6.06-1.78,6.01-1.82C79.29,23.1,77.23,29.57,72.15,36.55z" stroke-miterlimit="10" stroke-linejoin="round" stroke-linecap="round" stroke-width="3.5" stroke="#333435" fill="#E15D64" style="stroke-width: 3.5; fill: rgb(225, 93, 100); stroke: rgb(51, 52, 53);"></path></g></g></g></g></g><g
        class="ldl-layer"><g class="ldl-ani"><g><g class="ldl-layer"><g class="ldl-ani" style="transform-box: view-box; opacity: 1; transform-origin: 50px 50px; transform: matrix3d(0.91, 0, 0, 0, 0, 0.91, 0, 0, 0, 0, 0.91, 0, 0, 0, 0, 1); animation: 100s linear -80s infinite normal forwards running animate;"><path d="M59,27.5C59,39.37,50,50,50,50s-9-10.63-9-22.5c0-8.64,2.13-15.08,5.21-18.5C46.14,9,50,14,50,14s3.86-5,3.79-5 C56.87,12.42,59,18.86,59,27.5z" stroke-miterlimit="10" stroke-linejoin="round" stroke-linecap="round" stroke-width="3.5" stroke="#333435" fill="#F8AFB4" style="stroke-width: 3.5; fill: rgb(248, 175, 180); stroke: rgb(51, 52, 53);"></path></g></g><g
        class="ldl-layer"><g class="ldl-ani" style="transform-box: view-box; opacity: 1; transform-origin: 50px 50px; transform: matrix3d(0.91, 0, 0, 0, 0, 0.91, 0, 0, 0, 0, 0.91, 0, 0, 0, 0, 1); animation: 100s linear -85s infinite normal forwards running animate;"><path d="M31.38,34.49C42.68,38.16,50,50,50,50s-12.89,5.28-24.18,1.61c-8.21-2.67-13.69-6.69-15.99-10.67c-0.02,0.06,5.93-2.06,5.93-2.06 s-3.56-5.21-3.58-5.15C16.38,31.85,23.17,31.82,31.38,34.49z" stroke-miterlimit="10" stroke-linejoin="round" stroke-linecap="round" stroke-width="3.5" stroke="#333435" fill="#F8AFB4" style="stroke-width: 3.5; fill: rgb(248, 175, 180); stroke: rgb(51, 52, 53);"></path></g></g><g
        class="ldl-layer"><g class="ldl-ani" style="transform-box: view-box; opacity: 1; transform-origin: 50px 50px; transform: matrix3d(0.91, 0, 0, 0, 0, 0.91, 0, 0, 0, 0, 0.91, 0, 0, 0, 0, 1); animation: 100s linear -90s infinite normal forwards running animate;"><path d="M29.49,62.91C36.47,53.31,50,50,50,50s1.04,13.89-5.94,23.49c-5.08,6.99-10.59,10.95-15.09,11.91c0.05,0.04-0.13-6.28-0.13-6.28 s-6.06,1.78-6.01,1.82C22.35,76.37,24.42,69.9,29.49,62.91z" stroke-miterlimit="10" stroke-linejoin="round" stroke-linecap="round" stroke-width="3.5" stroke="#333435" fill="#F8AFB4" style="stroke-width: 3.5; fill: rgb(248, 175, 180); stroke: rgb(51, 52, 53);"></path></g></g><g
        class="ldl-layer"><g class="ldl-ani" style="transform-box: view-box; opacity: 1; transform-origin: 50px 50px; transform: matrix3d(0.91, 0, 0, 0, 0, 0.91, 0, 0, 0, 0, 0.91, 0, 0, 0, 0, 1); animation: 100s linear -95s infinite normal forwards running animate;"><path d="M55.94,73.49C48.96,63.89,50,50,50,50s13.53,3.31,20.51,12.91c5.08,6.99,7.14,13.46,6.66,18.03c0.05-0.04-6.01-1.82-6.01-1.82 s-0.18,6.31-0.13,6.28C66.53,84.44,61.02,80.48,55.94,73.49z" stroke-miterlimit="10" stroke-linejoin="round" stroke-linecap="round" stroke-width="3.5" stroke="#333435" fill="#F8AFB4" style="stroke-width: 3.5; fill: rgb(248, 175, 180); stroke: rgb(51, 52, 53);"></path></g></g><g
        class="ldl-layer"><g class="ldl-ani" style="transform-box: view-box; opacity: 1; transform-origin: 50px 50px; transform: matrix3d(0.91, 0, 0, 0, 0, 0.91, 0, 0, 0, 0, 0.91, 0, 0, 0, 0, 1); animation: 100s linear -100s infinite normal forwards running animate;"><path d="M74.18,51.61C62.89,55.28,50,50,50,50s7.32-11.84,18.62-15.51c8.21-2.67,15-2.63,19.21-0.77c-0.02-0.06-3.59,5.15-3.59,5.15 s5.95,2.12,5.93,2.06C87.87,44.92,82.39,48.94,74.18,51.61z" stroke-miterlimit="10" stroke-linejoin="round" stroke-linecap="round" stroke-width="3.5" stroke="#333435" fill="#F8AFB4" style="stroke-width: 3.5; fill: rgb(248, 175, 180); stroke: rgb(51, 52, 53);"></path></g></g></g></g></g><metadata
        xmlns:d="https://loading.io/stock/">




</metadata></g></g></svg>